<svg width="54" height="92" viewBox="0 0 54 92" fill="none" xmlns="http://www.w3.org/2000/svg">
<path d="M27.4075 91.6393C23.8364 91.6493 20.3867 91.0486 17.0585 89.8372C13.7299 88.5038 10.8307 86.5589 8.36073 84.0025C5.89043 81.3241 3.91117 78.095 2.42295 74.3153C0.934381 70.4135 0.182966 65.8993 0.1687 60.7728C0.06606 23.8869 42.1929 0.0295645 42.1929 0.0295645L52.8552 9.9102C50.276 12.3586 47.6974 14.99 45.1192 17.8046C42.6642 20.6188 40.3941 23.4936 38.3088 26.4288C36.3464 29.2417 34.6304 32.1148 33.1608 35.0484C31.6909 37.8599 30.59 40.4872 29.8579 42.9305C36.8787 43.5212 42.4889 46.1299 46.6886 50.7565C50.8883 55.3831 52.9969 60.8089 53.0142 67.034C53.0233 70.3296 52.4163 73.4438 51.193 76.3766C49.9698 79.3095 48.2531 81.9386 46.043 84.2639C43.8326 86.4671 41.1284 88.2445 37.9305 89.5961C34.7325 90.9476 31.2249 91.6287 27.4075 91.6393Z" fill="#493C24" fill-opacity="0.2"/>
</svg>
